<svg width="18" height="19" viewBox="0 0 18 19" fill="none" xmlns="http://www.w3.org/2000/svg">
<g id="Group">
<path id="Vector" d="M0.9375 0.681152C0.585938 0.76709 0.265625 1.03271 0.0976562 1.36865L0 1.56396V9.396V17.228L0.0898438 17.4038C0.226562 17.6851 0.382812 17.8491 0.652344 17.9937L0.898438 18.1265H3.36719C5.79688 18.1265 5.83594 18.1265 5.94141 18.0444C6.14844 17.8921 6.21094 17.7671 6.21094 17.521C6.21094 17.2749 6.14844 17.1499 5.94141 16.9976C5.83594 16.9155 5.78906 16.9155 3.53125 16.9038L1.23047 16.896V9.396V1.896H4.35156H7.47656L7.48828 3.31006C7.5 4.69287 7.50391 4.73193 7.58984 4.90381C7.72656 5.18506 7.88281 5.34912 8.15234 5.49365L8.39844 5.62646L9.8125 5.63818L11.2266 5.6499L11.2383 7.32568C11.25 8.94678 11.2539 9.00146 11.332 9.10693C11.4844 9.31396 11.6094 9.37646 11.8555 9.37646C12.1016 9.37646 12.2266 9.31396 12.3789 9.10693C12.457 9.00146 12.4609 8.95068 12.4727 7.00146C12.4805 5.8999 12.4727 4.93896 12.4609 4.86475C12.4414 4.74756 12.1406 4.43115 10.457 2.73975C9.32422 1.60693 8.42188 0.731934 8.35156 0.700684C8.24609 0.653809 7.62891 0.645996 4.64062 0.649902C2.66797 0.653809 1.00391 0.665527 0.9375 0.681152ZM9.55078 3.59521L10.3516 4.396H9.53906H8.73047V3.59521C8.73047 3.15381 8.73438 2.79443 8.74219 2.79443C8.74609 2.79443 9.10938 3.15381 9.55078 3.59521Z" fill="#05E091"/>
<path id="Vector_2" d="M2.8516 6.9508C2.58989 7.06408 2.44145 7.36486 2.49614 7.65783C2.53129 7.84142 2.7266 8.05626 2.90239 8.10705C3.00004 8.1383 3.62114 8.14611 4.75395 8.1383C6.40629 8.12658 6.46098 8.12267 6.56645 8.04455C6.77348 7.8922 6.83598 7.7672 6.83598 7.52111C6.83598 7.27501 6.77348 7.15001 6.56645 6.99767C6.46098 6.91955 6.4102 6.91564 4.71489 6.90783C3.32426 6.90001 2.94535 6.90783 2.8516 6.9508Z" fill="#05E091"/>
<path id="Vector_3" d="M15.0195 8.21631C14.8789 8.25146 14.6797 8.3335 14.5703 8.396C14.3359 8.52881 8.38281 14.4468 8.24219 14.689C8.125 14.8882 7.48047 17.3062 7.48047 17.5483C7.48047 17.8687 7.75391 18.146 8.07031 18.146C8.22656 18.146 10.7305 17.5015 10.8945 17.4155C11.0547 17.3374 16.9727 11.4272 17.1484 11.1733C17.4219 10.7788 17.5469 10.1499 17.4453 9.65771C17.332 9.13037 16.9336 8.59912 16.4727 8.36475C16.0352 8.14209 15.5078 8.0874 15.0195 8.21631ZM15.9453 9.49756C16.1133 9.62256 16.1992 9.76709 16.2188 9.95459C16.25 10.2202 16.207 10.3843 16.0547 10.5522L15.9219 10.7046L15.4258 10.2085L14.9258 9.7124L15.0156 9.61475C15.1719 9.44678 15.3281 9.39209 15.5938 9.40771C15.7617 9.41553 15.8711 9.44287 15.9453 9.49756ZM14.5508 11.0952L15.0391 11.5835L13.2891 13.3335L11.543 15.0796L11.0469 14.5796L10.5469 14.0835L12.2852 12.3452C13.2422 11.3882 14.0312 10.6069 14.043 10.6069C14.0547 10.6069 14.2812 10.8257 14.5508 11.0952ZM10.1758 15.4702L10.6641 15.9585L10.4688 16.1499C10.2734 16.3374 10.2695 16.3413 9.62891 16.4976C9.27734 16.5835 8.98047 16.6538 8.97656 16.6499C8.97266 16.646 9.04297 16.3491 9.12891 15.9976C9.28516 15.3687 9.29297 15.3491 9.46484 15.1655C9.56641 15.064 9.65625 14.9819 9.66797 14.9819C9.67969 14.9819 9.90625 15.2007 10.1758 15.4702Z" fill="#05E091"/>
<path id="Vector_4" d="M2.8516 9.4508C2.58989 9.56408 2.44145 9.86486 2.49614 10.1578C2.53129 10.3414 2.7266 10.5563 2.90239 10.607C3.00004 10.6383 4.09379 10.6461 6.31645 10.6383C9.54692 10.6266 9.58598 10.6266 9.69145 10.5445C9.89848 10.3922 9.96098 10.2672 9.96098 10.0211C9.96098 9.77501 9.89848 9.65001 9.69145 9.49767C9.58598 9.41564 9.55082 9.41564 6.27739 9.40783C3.58598 9.40001 2.94535 9.40783 2.8516 9.4508Z" fill="#05E091"/>
<path id="Vector_5" d="M2.8516 11.9508C2.58989 12.0641 2.44145 12.3649 2.49614 12.6578C2.53129 12.8414 2.7266 13.0563 2.90239 13.107C3.00004 13.1383 3.90629 13.1461 5.69145 13.1383C8.2891 13.1266 8.33598 13.1266 8.44145 13.0445C8.64848 12.8922 8.71098 12.7672 8.71098 12.5211C8.71098 12.275 8.64848 12.15 8.44145 11.9977C8.33598 11.9156 8.29301 11.9156 5.65239 11.9078C3.48051 11.9 2.94535 11.9078 2.8516 11.9508Z" fill="#05E091"/>
</g>
</svg>
