<svg width="20" height="21" viewBox="0 0 20 21" fill="none" xmlns="http://www.w3.org/2000/svg">
<g id="fi:bell">
<path id="Vector" d="M15 7.31543C15 5.98935 14.4732 4.71758 13.5355 3.7799C12.5979 2.84221 11.3261 2.31543 10 2.31543C8.67392 2.31543 7.40215 2.84221 6.46447 3.7799C5.52678 4.71758 5 5.98935 5 7.31543C5 13.1488 2.5 14.8154 2.5 14.8154H17.5C17.5 14.8154 15 13.1488 15 7.31543Z" stroke="black" stroke-width="2" stroke-linecap="round" stroke-linejoin="round"/>
<path id="Vector_2" d="M11.4417 18.1489C11.2952 18.4015 11.0849 18.6111 10.8319 18.7569C10.5789 18.9026 10.292 18.9793 10 18.9793C9.70803 18.9793 9.42117 18.9026 9.16816 18.7569C8.91515 18.6111 8.70486 18.4015 8.55835 18.1489" stroke="black" stroke-width="2" stroke-linecap="round" stroke-linejoin="round"/>
</g>
</svg>
