<svg width="20" height="20" viewBox="0 0 20 20" fill="none" xmlns="http://www.w3.org/2000/svg">
<g id="Group">
<path id="Vector" d="M9.89844 0.0202637C9.71484 0.0944824 9.6875 0.192139 9.6875 0.828857C9.6875 1.18823 9.70312 1.46167 9.73047 1.52026C9.83203 1.73511 10.168 1.73511 10.2695 1.52026C10.2969 1.46167 10.3125 1.18433 10.3125 0.821045C10.3125 0.250732 10.3086 0.215576 10.2266 0.121826C10.1211 0.00854492 10.0117 -0.0266113 9.89844 0.0202637Z" fill="#C648F2"/>
<path id="Vector_2" d="M6.9922 0.840694C6.85158 0.981319 6.89064 1.12976 7.21095 1.68835C7.37502 1.97741 7.54298 2.22741 7.58205 2.24694C7.77736 2.35241 8.04689 2.20007 8.04689 1.98913C8.04689 1.88366 7.54298 0.961788 7.41408 0.832881C7.31642 0.735225 7.08986 0.743038 6.9922 0.840694Z" fill="#C648F2"/>
<path id="Vector_3" d="M12.5898 0.832736C12.4453 0.973361 11.9531 1.88352 11.9531 2.00461C11.9531 2.21164 12.2227 2.35227 12.418 2.2468C12.457 2.22727 12.6211 1.97727 12.7852 1.6882C13.1094 1.12961 13.1484 0.981174 13.0078 0.840549C12.9102 0.742893 12.6836 0.73508 12.5898 0.832736Z" fill="#C648F2"/>
<path id="Vector_4" d="M9.25781 2.19214C7.92969 2.47729 6.84766 3.47339 6.48828 4.75073L6.41797 5.00073L4.09375 5.01245L1.76953 5.02026L1.67578 5.12183C1.58594 5.21948 1.58203 5.24292 1.57031 5.90308L1.55859 6.58276H0.894531H0.226562L0.113281 6.69604L0 6.80933V13.1218V19.4304L0.09375 19.5398L0.1875 19.6492H10H19.8125L19.9062 19.5398L20 19.4304V13.1218V6.80933L19.8867 6.69604L19.7734 6.58276H19.1055H18.4414L18.4297 5.90308C18.418 5.24292 18.4141 5.21948 18.3242 5.12183L18.2305 5.02026H15.8945H13.5625L13.5352 4.87183C13.4453 4.37964 13.082 3.7312 12.6406 3.27026C12.1094 2.71167 11.4453 2.33667 10.7344 2.19214C10.3633 2.11401 9.60938 2.11401 9.25781 2.19214ZM10.7266 2.83276C11.7539 3.09058 12.5703 3.86401 12.8906 4.88354C13.0117 5.27026 13.043 6.03198 12.9531 6.43823C12.8633 6.84448 12.6016 7.36011 12.2852 7.75464C12.0273 8.07886 11.7578 8.55933 11.7578 8.70386C11.7578 8.74292 11.7148 8.81714 11.6602 8.86792C11.5781 8.95386 11.5312 8.96558 11.2891 8.96558H11.0156V7.73511V6.50073L10.6445 5.59839C10.4375 5.09839 10.2422 4.66089 10.207 4.62183C10.1211 4.52417 9.875 4.52808 9.78906 4.62573C9.75 4.6687 9.55469 5.10229 9.35156 5.59448L8.98438 6.48511V7.72339V8.96558H8.71875C8.39062 8.96558 8.30859 8.91089 8.21875 8.64136C8.11328 8.31714 7.99609 8.11011 7.69922 7.73511C7.19141 7.09058 6.98438 6.52808 6.98438 5.78198C6.98047 5.24683 7.05469 4.92261 7.28516 4.45386C7.67969 3.64136 8.39453 3.05933 9.25781 2.83276C9.66406 2.7312 10.3125 2.72729 10.7266 2.83276ZM6.34766 5.96558C6.41406 6.80933 6.69141 7.50073 7.21094 8.13354C7.43359 8.39917 7.55469 8.62183 7.67969 8.98511C7.72266 9.11792 7.80859 9.23901 7.93359 9.36011L8.125 9.5437V9.93823C8.125 10.1843 8.14453 10.3835 8.17969 10.4617C8.23828 10.6062 8.48047 10.8328 8.63281 10.8875C8.71875 10.9148 8.74609 10.9539 8.76562 11.0789C8.82422 11.4539 9.14062 11.8484 9.50391 11.9968L9.6875 12.071V15.0085V17.946L9.49219 17.8132C9.38672 17.7429 9.19531 17.6414 9.07422 17.5906L8.84766 17.5007L5.51562 17.489L2.1875 17.4773V11.5632L2.19141 5.64526H4.25391H6.32031L6.34766 5.96558ZM17.8125 11.5632V17.4773L14.4844 17.489L11.1523 17.5007L10.9258 17.5906C10.8047 17.6414 10.6133 17.7429 10.5078 17.8132L10.3125 17.946V15.0085V12.071L10.5273 11.9773C10.8789 11.8289 11.1602 11.4617 11.2305 11.0632C11.2539 10.9421 11.2852 10.907 11.4023 10.8562C11.7578 10.7078 11.8711 10.4734 11.875 9.89917C11.875 9.49683 11.8789 9.48511 11.9727 9.44214C12.1133 9.37573 12.2812 9.12183 12.3789 8.81714C12.4336 8.64526 12.5352 8.46167 12.6602 8.29761C12.9648 7.90698 13.1445 7.63745 13.2617 7.40308C13.4961 6.94214 13.6328 6.39526 13.6328 5.93433V5.64526H15.7227H17.8086L17.8125 11.5632ZM10.1133 5.94214C10.1562 6.06323 10.1953 6.1687 10.1953 6.17651C10.1953 6.18433 10.1094 6.19214 10 6.19214C9.89453 6.19214 9.80469 6.18042 9.80469 6.16479C9.80469 6.1062 9.97656 5.72339 10 5.72339C10.0156 5.72339 10.0664 5.82104 10.1133 5.94214ZM10.3828 7.89917L10.3711 8.94604L9.99219 8.95776L9.60938 8.96948V7.91089V6.8562H10H10.3906L10.3828 7.89917ZM1.57031 12.5554L1.58203 17.9031L1.67578 18.0046L1.76953 18.1023L5.26953 18.114L8.76953 18.1257L8.96484 18.2234C9.27344 18.3757 9.53906 18.6687 9.625 18.9539L9.65234 19.0437H5.14062H0.625V13.1257V7.20776H1.09375H1.5625L1.57031 12.5554ZM19.375 13.1257V19.0437H14.8594H10.3477L10.375 18.9539C10.4609 18.6687 10.7266 18.3757 11.0352 18.2234L11.2305 18.1257L14.7305 18.114L18.2305 18.1023L18.3242 18.0046L18.418 17.9031L18.4297 12.5554L18.4375 7.20776H18.9062H19.375V13.1257ZM11.25 9.89136C11.25 10.0593 11.2344 10.2195 11.2188 10.2468C11.1914 10.282 10.918 10.2937 9.97656 10.2859L8.76953 10.2742L8.75781 9.93042L8.74609 9.59058H10H11.25V9.89136ZM10.625 10.946C10.625 11.0242 10.4531 11.3015 10.3633 11.3679C10.2109 11.4773 9.86328 11.4929 9.6875 11.3953C9.55859 11.325 9.37891 11.075 9.375 10.9656C9.375 10.9304 9.52734 10.9187 10 10.9187C10.3438 10.9187 10.625 10.9304 10.625 10.946Z" fill="#C648F2"/>
<path id="Vector_5" d="M3.62893 7.24292C3.50784 7.36792 3.49221 7.43823 3.56252 7.57104C3.65237 7.74683 3.68752 7.75073 4.63284 7.75464C5.48831 7.75464 5.54299 7.75073 5.64065 7.67261C5.77737 7.56323 5.78127 7.36011 5.64456 7.22729L5.55081 7.12964H4.64846H3.74221L3.62893 7.24292Z" fill="#C648F2"/>
<path id="Vector_6" d="M3.62891 8.88354C3.56641 8.94604 3.51562 9.02808 3.51562 9.06323C3.51562 9.15698 3.62109 9.34448 3.69141 9.37183C3.72656 9.38354 4.34375 9.39526 5.0625 9.39526H6.37109L6.46484 9.29761C6.57031 9.19604 6.58984 9.02417 6.51172 8.92261C6.40234 8.77808 6.32031 8.77026 5.01953 8.77026H3.74219L3.62891 8.88354Z" fill="#C648F2"/>
<path id="Vector_7" d="M3.71092 10.4617C3.5117 10.5632 3.47264 10.825 3.64061 10.9656C3.71483 11.032 3.85155 11.0359 5.32811 11.0359H6.94139L7.02342 10.946C7.17967 10.7781 7.12108 10.5281 6.91014 10.4539C6.72264 10.3914 3.83983 10.3953 3.71092 10.4617Z" fill="#C648F2"/>
<path id="Vector_8" d="M3.62893 12.1648C3.50784 12.2625 3.50393 12.489 3.62502 12.6101L3.71487 12.696H5.93362H8.15627L8.25784 12.6023C8.39065 12.4773 8.39456 12.2937 8.26956 12.1765L8.17971 12.0906H5.94924C3.82815 12.0906 3.71487 12.0945 3.62893 12.1648Z" fill="#C648F2"/>
<path id="Vector_9" d="M3.67969 13.7585C3.62109 13.782 3.51562 13.9773 3.51562 14.0632C3.51562 14.0984 3.56641 14.1804 3.62891 14.2429L3.74219 14.3562H5.91797C7.74609 14.3562 8.10547 14.3484 8.19922 14.2976C8.37891 14.2039 8.41406 14.0085 8.27734 13.8328L8.19922 13.7312L5.96484 13.7351C4.73438 13.7351 3.70703 13.7468 3.67969 13.7585Z" fill="#C648F2"/>
<path id="Vector_10" d="M3.66797 15.4226C3.58984 15.4812 3.51562 15.6218 3.51562 15.7039C3.51562 15.739 3.56641 15.821 3.62891 15.8835L3.74219 15.9968H5.95703H8.16797L8.26172 15.8992C8.32422 15.8406 8.35938 15.7585 8.35938 15.6843C8.35938 15.6101 8.32422 15.5281 8.26172 15.4695L8.16797 15.3718H5.94922C4.26562 15.3757 3.71484 15.3875 3.66797 15.4226Z" fill="#C648F2"/>
<path id="Vector_11" d="M14.3594 7.21167C14.2148 7.32495 14.2148 7.55933 14.3594 7.67261C14.457 7.75073 14.5117 7.75464 15.3672 7.75464C16.3125 7.75073 16.3477 7.74683 16.4375 7.57104C16.5078 7.43823 16.4922 7.36792 16.3711 7.24292L16.2578 7.12964H15.3594C14.5117 7.12964 14.457 7.13354 14.3594 7.21167Z" fill="#C648F2"/>
<path id="Vector_12" d="M13.6132 8.81714C13.414 8.93042 13.3789 9.14526 13.5351 9.29761L13.6289 9.39526H14.9375C15.6562 9.39526 16.2734 9.38354 16.3085 9.37183C16.3789 9.34448 16.4843 9.15698 16.4843 9.06323C16.4843 9.02808 16.4335 8.94604 16.371 8.88354L16.2578 8.77026H14.9726C14.082 8.77417 13.6679 8.78589 13.6132 8.81714Z" fill="#C648F2"/>
<path id="Vector_13" d="M13.0625 10.4656C12.8672 10.5515 12.8242 10.8054 12.9805 10.95C13.0703 11.0359 13.082 11.0359 14.6758 11.0359C16.1836 11.0359 16.2851 11.032 16.3711 10.9617C16.4922 10.864 16.4961 10.6375 16.375 10.5164C16.289 10.4304 16.2812 10.4304 14.7344 10.4226C13.4922 10.4148 13.1601 10.4226 13.0625 10.4656Z" fill="#C648F2"/>
<path id="Vector_14" d="M11.7265 12.1804C11.5507 12.364 11.6601 12.6492 11.9218 12.6961C11.9921 12.7078 13.0039 12.7156 14.1679 12.7078L16.2851 12.6961L16.375 12.6101C16.496 12.489 16.4921 12.2625 16.371 12.1648C16.2851 12.0945 16.1718 12.0906 14.0468 12.0906H11.8085L11.7265 12.1804Z" fill="#C648F2"/>
<path id="Vector_15" d="M11.7227 13.8328C11.5859 14.0085 11.6211 14.2039 11.8008 14.2976C11.8945 14.3484 12.2539 14.3562 14.082 14.3562H16.2578L16.3711 14.2429C16.4336 14.1804 16.4844 14.0984 16.4844 14.0632C16.4844 13.9695 16.3789 13.782 16.3086 13.7546C16.2734 13.7429 15.2461 13.7312 14.0234 13.7312H11.8008L11.7227 13.8328Z" fill="#C648F2"/>
<path id="Vector_16" d="M11.7383 15.4695C11.6758 15.5281 11.6406 15.6101 11.6406 15.6843C11.6406 15.7585 11.6758 15.8406 11.7383 15.8992L11.832 15.9968H14.043H16.2578L16.3711 15.8835C16.4922 15.7585 16.5078 15.6882 16.4375 15.5554C16.3398 15.3718 16.3945 15.3757 14.0508 15.3718H11.832L11.7383 15.4695Z" fill="#C648F2"/>
<path id="Vector_17" d="M4.96093 2.8718C4.83984 2.9929 4.82031 3.13743 4.91015 3.25462C5.02734 3.41087 5.95703 3.93821 6.10937 3.9343C6.33984 3.92649 6.48046 3.65696 6.34765 3.46946C6.26562 3.35227 5.27343 2.79368 5.14453 2.79368C5.08593 2.79368 5.0039 2.82884 4.96093 2.8718Z" fill="#C648F2"/>
<path id="Vector_18" d="M14.2383 3.08665C13.7031 3.39134 13.5938 3.48509 13.5938 3.63743C13.5938 3.77415 13.75 3.9304 13.8906 3.9343C14.043 3.93821 14.9727 3.41087 15.0898 3.25462C15.2227 3.07493 15.0781 2.79368 14.8555 2.79368C14.793 2.79368 14.5312 2.91477 14.2383 3.08665Z" fill="#C648F2"/>
</g>
</svg>
