<svg width="20" height="20" viewBox="0 0 20 20" fill="none" xmlns="http://www.w3.org/2000/svg">
<g id="book-_1_ 1" clip-path="url(#clip0_135_1081)">
<g id="Group">
<path id="Vector" d="M1.84766 2.25767C1.69531 2.37486 1.67969 2.50377 1.67969 3.49986C1.67969 4.38267 1.67578 4.45298 1.61328 4.45298C1.57422 4.45298 1.28906 4.41002 0.976562 4.35533C0.664062 4.30064 0.378906 4.25767 0.335938 4.25767C0.296875 4.25767 0.207031 4.31627 0.132812 4.39048L0 4.5233V10.2069C0 13.7264 0.015625 15.9295 0.0390625 15.992C0.0585938 16.0467 0.113281 16.117 0.164062 16.1483C0.222656 16.1835 1.78125 16.4608 4.28516 16.8788C8.6875 17.6131 8.46094 17.5897 8.60547 17.3475C8.70703 17.1756 8.6875 17.0389 8.54688 16.8983L8.41797 16.7733L4.84375 16.1795C2.87891 15.8514 1.16016 15.5663 1.02734 15.5428L0.78125 15.4999V10.3045V5.10923L0.890625 5.13267C0.949219 5.14439 1.10938 5.17173 1.25 5.19517C1.39062 5.21861 1.54297 5.24595 1.59375 5.25377L1.67969 5.2733V9.74986C1.67969 14.5311 1.67578 14.4256 1.86719 14.5272C1.96094 14.578 9.85547 16.2499 10 16.2499C10.0938 16.2499 11.9883 15.8553 16.75 14.8475C17.4648 14.6952 18.0859 14.5506 18.1289 14.5272C18.3242 14.4256 18.3203 14.5428 18.3203 9.74986V5.2733L18.4102 5.25377C18.457 5.24595 18.6094 5.21861 18.75 5.19517C18.8906 5.17173 19.0508 5.14439 19.1133 5.13267L19.2188 5.10923V10.3045V15.4999L19.1133 15.5233C19.0508 15.535 17.3438 15.8163 15.3125 16.1522C13.2812 16.4842 11.5781 16.7811 11.5234 16.8085C11.4688 16.8358 11.3945 16.9217 11.3555 17.0038C11.2852 17.1444 11.2852 17.1522 11.3555 17.2967C11.4805 17.5545 11.5586 17.5663 12.3008 17.4452C17.3711 16.6131 19.75 16.203 19.832 16.1522C19.8828 16.117 19.9414 16.0467 19.9609 15.992C19.9844 15.9295 20 13.7264 20 10.2069V4.5233L19.8672 4.39048C19.793 4.31627 19.7031 4.25767 19.6602 4.25767C19.6211 4.25767 19.3359 4.30064 19.0234 4.35533C18.7109 4.41002 18.4258 4.45298 18.3906 4.45298C18.3242 4.45298 18.3203 4.38267 18.3203 3.49986C18.3203 2.92564 18.3047 2.50377 18.2773 2.42955C18.2266 2.28111 18.0898 2.18736 17.9219 2.18736C17.8516 2.18736 16.043 2.55845 13.8984 3.01158L10.0039 3.8358L7.19922 3.24205C5.65625 2.91783 3.90625 2.54673 3.30859 2.41783C2.71094 2.29283 2.15625 2.18736 2.07812 2.18736C2 2.18736 1.89453 2.21861 1.84766 2.25767ZM6.10156 3.81236L9.60938 4.55064V9.97252C9.60938 15.121 9.60547 15.3944 9.54297 15.3749C9.50391 15.3631 8.21484 15.0897 6.67969 14.7655C5.14453 14.4452 3.57031 14.1131 3.18359 14.0311L2.48047 13.8827L2.46875 8.4608C2.46094 3.30845 2.46484 3.03892 2.52734 3.05455C2.56641 3.06236 4.17578 3.4022 6.10156 3.81236ZM17.5312 8.4647L17.5195 13.8827L14.0625 14.6131C12.1602 15.0155 10.5586 15.3553 10.5 15.367L10.3906 15.3866V9.96861V4.55064L12.5898 4.0897C13.7969 3.8358 15.3828 3.49595 16.1133 3.3397C16.8438 3.18345 17.4648 3.05455 17.4922 3.05064C17.5312 3.04673 17.5391 4.14048 17.5312 8.4647Z" fill="#FD00CC"/>
<path id="Vector_2" d="M3.67573 5.48458C3.4101 5.62911 3.41791 6.01192 3.68744 6.14864C3.86323 6.23848 8.27338 7.16036 8.38666 7.12911C8.67182 7.05879 8.77338 6.69551 8.56635 6.48848C8.47651 6.40254 8.36713 6.36348 7.92963 6.27364C7.64057 6.21504 6.62104 6.0002 5.66401 5.79708C4.71088 5.59395 3.89448 5.42989 3.8476 5.42989C3.80463 5.43379 3.72651 5.45723 3.67573 5.48458Z" fill="#FD00CC"/>
<path id="Vector_3" d="M3.58979 7.65234C3.4101 7.83203 3.45307 8.125 3.67573 8.24219C3.7851 8.30469 8.14447 9.21875 8.31635 9.21875C8.67572 9.21875 8.80463 8.75391 8.51166 8.52344C8.46088 8.48438 7.15619 8.19141 5.85932 7.92969C5.76166 7.91016 5.30854 7.8125 4.8476 7.71484C3.83979 7.50391 3.74604 7.5 3.58979 7.65234Z" fill="#FD00CC"/>
<path id="Vector_4" d="M3.6758 9.66409C3.41018 9.81253 3.4258 10.2344 3.69924 10.3438C3.94143 10.4453 8.26174 11.3321 8.38674 11.3086C8.5508 11.2774 8.6719 11.1211 8.6719 10.9375C8.6719 10.711 8.56252 10.6055 8.25393 10.5313C7.73049 10.4063 3.90627 9.60941 3.83596 9.60941C3.8008 9.61331 3.72658 9.63675 3.6758 9.66409Z" fill="#FD00CC"/>
<path id="Vector_5" d="M3.58988 11.8319C3.38285 12.039 3.47269 12.3632 3.76175 12.4569C3.89847 12.5038 8.09769 13.3905 8.22269 13.4022C8.39847 13.414 8.47269 13.3944 8.57035 13.2968C8.71488 13.1483 8.71488 12.9061 8.56644 12.7655C8.44925 12.6561 8.64847 12.703 4.99222 11.9296C4.43753 11.8124 3.92191 11.7186 3.84769 11.7186C3.74222 11.7186 3.67581 11.7499 3.58988 11.8319Z" fill="#FD00CC"/>
<path id="Vector_6" d="M13.7617 5.91406C11.2539 6.44922 11.3281 6.42188 11.3281 6.75C11.3281 6.88672 11.3516 6.94141 11.4414 7.03516C11.5039 7.09766 11.5937 7.14844 11.6367 7.14844C11.6836 7.14844 12.4687 6.98828 13.3867 6.79688C14.3086 6.60156 15.3086 6.39062 15.6133 6.32422C15.9219 6.26172 16.2109 6.19531 16.2578 6.17578C16.4141 6.11719 16.5039 5.98438 16.5039 5.8125C16.5039 5.60938 16.3203 5.42969 16.1211 5.43359C16.0547 5.43359 14.9883 5.65234 13.7617 5.91406Z" fill="#FD00CC"/>
<path id="Vector_7" d="M14.0234 7.95312C12.875 8.19922 11.8398 8.41797 11.7227 8.44141C11.4375 8.5 11.3281 8.61328 11.3281 8.84766C11.3281 9.08203 11.4531 9.21875 11.668 9.21875C11.8828 9.21875 16.2461 8.29297 16.3477 8.22656C16.5312 8.10547 16.5625 7.83984 16.418 7.66016C16.2695 7.48047 16.2383 7.48438 14.0234 7.95312Z" fill="#FD00CC"/>
<path id="Vector_8" d="M13.7578 10.0977C11.2539 10.6328 11.3281 10.6055 11.3281 10.9297C11.3281 11.0664 11.3516 11.1211 11.4414 11.2148C11.582 11.3555 11.6289 11.3555 12.2734 11.2148C12.5586 11.1562 13.5742 10.9414 14.5312 10.7383C16.0859 10.4102 16.2812 10.3594 16.3867 10.2695C16.4805 10.1836 16.5039 10.1328 16.5039 10C16.5039 9.86328 16.4805 9.81641 16.375 9.72266C16.2851 9.64453 16.2109 9.60938 16.1211 9.61328C16.0547 9.61719 14.9883 9.83203 13.7578 10.0977Z" fill="#FD00CC"/>
<path id="Vector_9" d="M13.7305 12.1952C12.5274 12.453 11.5039 12.6873 11.457 12.7186C11.4102 12.7459 11.3516 12.8436 11.3242 12.9256C11.2852 13.0584 11.2891 13.0975 11.3555 13.2108C11.4922 13.4491 11.5781 13.4491 12.5938 13.2381C15.1367 12.7108 16.2656 12.4608 16.3438 12.4061C16.4609 12.3319 16.5391 12.1366 16.5078 12.0077C16.4609 11.8202 16.3164 11.7186 16.1055 11.7225C16.0039 11.7264 14.9336 11.9373 13.7305 12.1952Z" fill="#FD00CC"/>
<path id="Vector_10" d="M9.89452 17.0625C9.62499 17.1054 9.51171 17.4922 9.71484 17.7031C9.91405 17.914 10.3047 17.8047 10.3594 17.5273C10.3828 17.414 10.3281 17.207 10.2578 17.1523C10.1836 17.0898 9.99999 17.0429 9.89452 17.0625Z" fill="#FD00CC"/>
</g>
</g>
<defs>
<clipPath id="clip0_135_1081">
<rect width="20" height="20" fill="white"/>
</clipPath>
</defs>
</svg>
