<svg width="20" height="21" viewBox="0 0 20 21" fill="none" xmlns="http://www.w3.org/2000/svg">
<g id="Group">
<path id="Vector" d="M19.999 9.94508C19.9213 10.0781 19.865 10.2327 19.7609 10.3398C19.5384 10.5687 19.2542 10.6308 18.9525 10.5193C18.6439 10.4054 18.4747 10.1706 18.4419 9.84285C18.4321 9.74601 18.4375 9.64769 18.4375 9.54986C18.4375 8.18911 18.438 6.82835 18.437 5.46809C18.4365 4.42918 17.7817 3.77424 16.743 3.77326C16.4574 3.77277 16.1718 3.77326 15.8583 3.77326C15.8583 4.04815 15.8681 4.31277 15.8563 4.5769C15.8294 5.18782 15.1756 5.53559 14.6645 5.21325C14.4269 5.06309 14.307 4.83956 14.3002 4.56027C14.2938 4.30739 14.2987 4.05402 14.2987 3.78744C13.1138 3.78744 11.9401 3.78744 10.7444 3.78744C10.7444 3.98847 10.7444 4.18804 10.7444 4.38809C10.7444 4.97358 10.4509 5.33162 9.96873 5.33505C9.47919 5.33847 9.18283 4.97749 9.18283 4.3788C9.18283 4.18462 9.18283 3.99092 9.18283 3.78549C8.01206 3.78549 6.85645 3.78549 5.66807 3.78549C5.66807 4.03592 5.67296 4.2932 5.66709 4.55048C5.65927 4.90412 5.45142 5.18977 5.13599 5.29347C4.63325 5.45977 4.12953 5.10711 4.10948 4.56809C4.0997 4.30983 4.10802 4.05108 4.10802 3.75369C3.64734 3.77619 3.19888 3.74929 2.77097 3.83C2.07261 3.96157 1.61095 4.57005 1.57134 5.30227C1.56841 5.35412 1.5689 5.40646 1.5689 5.45831C1.5689 9.44275 1.56939 13.4267 1.56841 17.4111C1.56841 18.0881 1.83151 18.6217 2.45358 18.9142C2.69125 19.0258 2.97832 19.0771 3.24387 19.0791C5.16338 19.0928 7.08336 19.0874 9.00335 19.0849C9.25521 19.0844 9.48164 19.1392 9.6621 19.3227C10.0377 19.7042 9.92227 20.3396 9.43763 20.5714C9.37992 20.5993 9.32026 20.6232 9.26157 20.6492C7.10097 20.6492 4.94037 20.6492 2.77977 20.6492C2.75728 20.6379 2.73576 20.6198 2.71179 20.6169C1.24221 20.4374 -0.00827254 19.126 4.12187e-05 17.4038C0.0200921 13.4208 0.00542071 9.43785 0.00933307 5.45537C0.00933307 5.20983 0.0254715 4.95891 0.0748651 4.71923C0.373182 3.26114 1.609 2.24082 3.09912 2.21245C3.42873 2.20609 3.75884 2.21147 4.10802 2.21147C4.10802 1.93267 4.10019 1.67392 4.10948 1.41566C4.12953 0.876639 4.63325 0.524956 5.13599 0.690771C5.45093 0.794955 5.65878 1.08012 5.6666 1.43376C5.67247 1.69055 5.66758 1.94783 5.66758 2.19924C6.85547 2.19924 8.01108 2.19924 9.18283 2.19924C9.18283 1.95566 9.18088 1.72283 9.18332 1.49001C9.18772 0.995987 9.51343 0.647238 9.96677 0.649195C10.4191 0.650662 10.7404 0.999411 10.7448 1.49539C10.7468 1.72772 10.7453 1.96006 10.7453 2.19826C11.9386 2.19826 13.1118 2.19826 14.2987 2.19826C14.2987 1.95957 14.2978 1.7331 14.2987 1.50664C14.3022 0.997943 14.6254 0.645771 15.0856 0.649195C15.538 0.652619 15.8568 1.00137 15.8603 1.49881C15.8622 1.73066 15.8607 1.96299 15.8607 2.21294C16.2456 2.21294 16.6095 2.19631 16.9714 2.21587C18.2052 2.28337 19.1178 2.87179 19.6743 3.97233C19.8323 4.2844 19.8939 4.64537 20 4.98385C19.999 6.63759 19.999 8.29134 19.999 9.94508Z" fill="#055FE0"/>
<path id="Vector_2" d="M14.8836 20.6483C14.4317 20.5349 13.9657 20.462 13.5314 20.3016C11.5165 19.5591 10.2372 17.3125 10.6143 15.198C10.9483 13.3246 12.0173 12.0294 13.817 11.4429C15.6602 10.8423 17.3108 11.2913 18.682 12.6638C19.4268 13.4092 19.8376 14.3327 19.9643 15.3809C19.9702 15.4313 19.9873 15.4807 19.999 15.5306C19.999 15.7908 19.999 16.0515 19.999 16.3117C19.9858 16.3743 19.9702 16.4369 19.9604 16.5C19.6689 18.3675 18.6498 19.6632 16.8892 20.3485C16.5009 20.4996 16.074 20.5505 15.6646 20.6474C15.4045 20.6483 15.1443 20.6483 14.8836 20.6483ZM15.2651 19.0851C17.0046 19.091 18.4336 17.6681 18.4365 15.9263C18.4395 14.1928 17.0286 12.7709 15.2934 12.7582C13.5549 12.746 12.1215 14.1645 12.1122 15.9077C12.1029 17.6471 13.5236 19.0792 15.2651 19.0851Z" fill="#055FE0"/>
<path id="Vector_3" d="M5.66715 8.84904C5.66813 9.27849 5.31406 9.63262 4.88468 9.63115C4.45529 9.62968 4.10367 9.27311 4.10807 8.84365C4.11247 8.42203 4.45921 8.07523 4.88076 8.07132C5.30966 8.06741 5.66568 8.41958 5.66715 8.84904Z" fill="#055FE0"/>
<path id="Vector_4" d="M9.06414 8.8583C9.06023 9.28775 8.70176 9.63748 8.27238 9.63112C7.84299 9.62427 7.49577 9.26379 7.50507 8.83433C7.51436 8.4127 7.86549 8.07031 8.28705 8.07129C8.71643 8.07276 9.06854 8.42884 9.06414 8.8583Z" fill="#055FE0"/>
<path id="Vector_5" d="M11.6848 8.07129C12.1142 8.07276 12.4658 8.42934 12.4614 8.85879C12.457 9.28824 12.0981 9.63797 11.6692 9.63063C11.2476 9.62379 10.9033 9.27455 10.9023 8.85292C10.9014 8.42347 11.2554 8.06983 11.6848 8.07129Z" fill="#055FE0"/>
<path id="Vector_6" d="M15.8589 8.84374C15.8633 9.27319 15.5117 9.62976 15.0823 9.63123C14.6529 9.6327 14.2988 9.27906 14.2998 8.8496C14.3008 8.42749 14.6451 8.07874 15.0666 8.07189C15.4955 8.06455 15.8545 8.41428 15.8589 8.84374Z" fill="#055FE0"/>
<path id="Vector_7" d="M5.66716 12.2494C5.66716 12.6789 5.3126 13.032 4.88322 13.0296C4.45384 13.0271 4.10319 12.6696 4.10808 12.2401C4.11297 11.8185 4.46068 11.4727 4.88224 11.4697C5.31162 11.4668 5.66667 11.8195 5.66716 12.2494Z" fill="#055FE0"/>
<path id="Vector_8" d="M9.06416 12.2575C9.05976 12.6869 8.7008 13.0367 8.27191 13.0293C7.84252 13.0225 7.4953 12.661 7.50508 12.232C7.51438 11.8104 7.866 11.468 8.28756 11.47C8.71743 11.4714 9.06856 11.828 9.06416 12.2575Z" fill="#055FE0"/>
<path id="Vector_9" d="M5.66711 15.6535C5.66418 16.0829 5.30669 16.4336 4.8778 16.4282C4.44841 16.4229 4.10021 16.0629 4.10804 15.6334C4.11586 15.2118 4.46602 14.8684 4.88807 14.8684C5.31696 14.8684 5.67005 15.224 5.66711 15.6535Z" fill="#055FE0"/>
<path id="Vector_10" d="M8.28166 16.4281C7.85228 16.4261 7.50065 16.0696 7.50554 15.6401C7.50994 15.2107 7.8689 14.8614 8.29828 14.8683C8.71984 14.8751 9.06413 15.2248 9.06462 15.6465C9.06511 16.0759 8.71055 16.43 8.28166 16.4281Z" fill="#055FE0"/>
<path id="Vector_11" d="M16.054 15.1432C16.2066 15.1432 16.3303 15.1363 16.4526 15.1446C16.8737 15.173 17.192 15.5173 17.1866 15.9326C17.1813 16.3396 16.8653 16.682 16.4511 16.6971C16.0423 16.7123 15.632 16.7128 15.2236 16.6961C14.825 16.6805 14.5106 16.364 14.5003 15.9639C14.4861 15.4053 14.4861 14.8458 14.4998 14.2872C14.5101 13.8631 14.8583 13.5418 15.2735 13.5403C15.696 13.5393 16.0379 13.8675 16.0535 14.3023C16.0618 14.5738 16.054 14.8458 16.054 15.1432Z" fill="#055FE0"/>
</g>
</svg>
