<svg width="19" height="21" viewBox="0 0 19 21" fill="none" xmlns="http://www.w3.org/2000/svg">
<g id="Group">
<path id="Vector" d="M5.95703 0.18392C5.79688 0.250326 5.64453 0.418295 5.60156 0.578451C5.52344 0.87142 5.6875 1.15267 6.03516 1.33236C6.10156 1.36751 6.15234 1.40658 6.15234 1.42611C6.15234 1.44173 6 1.51204 5.8125 1.58626C4.49609 2.08236 3.11719 3.06673 2.19141 4.16048C1.03516 5.53548 0.347656 7.05501 0.0703125 8.85189C-0.0234375 9.47298 -0.0234375 10.8089 0.0703125 11.43C0.585938 14.7816 2.72266 17.4769 5.83984 18.7113C6.37109 18.9183 7.23828 19.1566 7.59766 19.1878C7.82031 19.2074 7.86719 19.1995 7.98438 19.1175C8.19141 18.9769 8.27344 18.8402 8.27344 18.6449C8.27344 18.4495 8.17578 18.2542 8.02734 18.1449C7.97266 18.1058 7.74609 18.0394 7.51953 17.9925C5.85156 17.6488 4.24609 16.7074 3.125 15.4027C2.125 14.2425 1.51172 12.9339 1.24219 11.3714C1.14844 10.8245 1.14844 9.45736 1.24219 8.91048C1.66016 6.49642 3.00391 4.49642 5.02734 3.27376C5.50781 2.9847 6.54297 2.50423 6.49609 2.59408C6.27734 3.00814 6.22266 3.16439 6.24609 3.2972C6.30859 3.69954 6.72656 3.91439 7.08594 3.72689C7.24609 3.64486 7.29297 3.58236 7.64453 2.95345C8.23047 1.91829 8.27344 1.82454 8.26953 1.63314C8.26562 1.34017 8.17188 1.25423 7.23438 0.687826C6.34375 0.148764 6.1875 0.0862637 5.95703 0.18392Z" fill="#FF005C"/>
<path id="Vector_2" d="M10.332 1.16064C10.164 1.26611 10.1093 1.33252 10.0586 1.5083C10.0078 1.68799 10.0664 1.90283 10.207 2.05908C10.3008 2.16455 10.3789 2.19189 10.8047 2.28955C14.0898 3.02783 16.4492 5.49268 17.0586 8.81299C17.1797 9.46143 17.1797 10.8208 17.0586 11.4692C16.625 13.8364 15.289 15.8052 13.2929 17.0083C12.8125 17.2974 11.7812 17.7778 11.8242 17.6919C12.0742 17.1919 12.0976 17.1216 12.0742 16.9849C12.0117 16.5825 11.5937 16.3677 11.2343 16.5552C11.0703 16.6411 11.0273 16.6997 10.5781 17.5044C10.3125 17.9771 10.0781 18.4263 10.0586 18.5005C10.0156 18.6606 10.0625 18.8638 10.1718 18.9966C10.2109 19.0396 10.625 19.313 11.0976 19.6021C11.9062 20.0903 11.9648 20.1216 12.1562 20.1216C12.4922 20.1216 12.7304 19.8872 12.7304 19.5552C12.7304 19.3169 12.6523 19.1997 12.3711 19.0083C12.2617 18.9341 12.1718 18.8638 12.1679 18.8521C12.1679 18.8403 12.3203 18.7739 12.5117 18.6997C17.1797 16.8716 19.5117 11.5981 17.7343 6.87939C16.6406 3.96533 14.0586 1.7583 11.0273 1.14111C10.6289 1.05908 10.4961 1.06299 10.332 1.16064Z" fill="#FF005C"/>
<path id="Vector_3" d="M8.45703 4.51215C7.33203 4.75043 6.41406 5.47309 5.91797 6.51215C5.69141 6.98871 5.60547 7.36762 5.57812 8.00434L5.55469 8.5434L5.44531 8.60199C5.25 8.69965 4.94922 9.03949 4.81641 9.30902L4.6875 9.57465V11.8207V14.0668L4.77734 14.2934C4.88672 14.5551 5.21484 14.9301 5.46875 15.0786C5.84766 15.3012 5.82031 15.3012 9.26172 15.2895L12.4219 15.2778L12.6484 15.1879C12.9062 15.0825 13.2852 14.7543 13.4297 14.5043C13.6523 14.1215 13.6562 14.0942 13.6445 11.7387C13.6328 9.57855 13.6328 9.57465 13.543 9.37934C13.4102 9.09027 13.1758 8.80121 12.957 8.66449L12.7656 8.53949L12.7422 8.00043C12.7148 7.36762 12.6289 6.98871 12.4023 6.51215C11.6836 5.00824 10.043 4.18012 8.45703 4.51215ZM9.72266 5.68793C10.832 5.96918 11.5781 6.93793 11.582 8.09809V8.38324H9.16016H6.73828V8.09809C6.74219 6.94574 7.48438 5.97699 8.58203 5.68793C8.95312 5.59027 9.34766 5.59027 9.72266 5.68793ZM12.3477 9.68793L12.4805 9.82074V11.8286C12.4805 14.0278 12.4883 13.9418 12.2461 14.0668C12.0742 14.1567 6.24609 14.1567 6.07422 14.0668C5.83203 13.9418 5.83984 14.0278 5.83984 11.8286V9.82074L5.97266 9.68793L6.10547 9.55512H9.16016H12.2148L12.3477 9.68793Z" fill="#FF005C"/>
<path id="Vector_4" d="M8.86331 10.9419C8.6094 11.0942 8.56643 11.2349 8.58206 11.8911C8.59378 12.3716 8.6055 12.4536 8.67581 12.5474C8.82034 12.7427 8.95706 12.8169 9.16018 12.8169C9.36331 12.8169 9.50003 12.7427 9.64456 12.5474C9.71878 12.4536 9.72659 12.3716 9.73831 11.8755C9.75003 11.3481 9.74612 11.3052 9.66018 11.1528C9.49221 10.856 9.15628 10.7661 8.86331 10.9419Z" fill="#FF005C"/>
</g>
</svg>
