<svg width="21" height="20" viewBox="0 0 21 20" fill="none" xmlns="http://www.w3.org/2000/svg">
<g id="Frame" clip-path="url(#clip0_126_872)">
<g id="Group">
<path id="Vector" d="M15.5148 13.9306C15.1043 13.9042 14.6879 13.9124 14.2846 13.8437C13.1976 13.6579 12.1188 13.4242 11.0318 13.2378C9.87316 13.0393 8.71293 13.0157 7.56526 13.3296C7.46907 13.356 7.40841 13.3489 7.35048 13.2477C6.41486 11.6082 5.47432 9.97146 4.52722 8.32097C4.59717 8.24675 4.66658 8.17362 4.73544 8.09995C5.66778 7.10536 6.22577 5.90241 6.66024 4.62742C6.96683 3.72741 7.27452 2.82794 7.60625 1.93726C7.72812 1.61068 7.92104 1.31104 8.10521 0.953125C8.19921 1.40451 8.25932 1.78937 8.36097 2.16268C8.73369 3.53663 9.31463 4.8281 9.95295 6.09374C10.9973 8.16428 12.2046 10.1337 13.6397 11.9557C14.1949 12.66 14.7857 13.3313 15.5301 13.8481C15.5251 13.8756 15.5197 13.9031 15.5148 13.9306Z" fill="#055FE0"/>
<path id="Vector_2" d="M12.6342 9.45552C13.6725 8.65227 13.7327 7.42897 13.2818 6.60042C12.8719 5.8483 11.8199 5.12751 10.4432 5.67456C10.2279 5.20613 10.0044 4.73935 9.79779 4.26488C9.40048 3.35496 9.03432 2.4324 8.84906 1.45101C8.80151 1.19756 8.78129 0.932553 8.79331 0.675247C8.81244 0.255751 9.08515 0.0787164 9.44694 0.284891C9.79779 0.485017 10.1323 0.735175 10.423 1.01667C11.3701 1.93483 12.1347 3.00529 12.8582 4.10379C14.1622 6.08471 15.3148 8.14975 16.1613 10.3726C16.4231 11.0593 16.598 11.7817 16.7778 12.4965C16.8357 12.7263 16.81 12.9896 16.7696 13.2282C16.7226 13.5042 16.5215 13.6158 16.2663 13.5042C16.0143 13.3937 15.7684 13.2475 15.5536 13.0748C14.6142 12.3194 13.2692 10.5029 12.6342 9.45552Z" fill="#055FE0"/>
<path id="Vector_3" d="M4.02665 8.73047C4.95572 10.3491 5.87768 11.9545 6.79526 13.5527C6.78105 13.5797 6.77832 13.5973 6.76848 13.6028C6.0143 14.0415 5.27542 14.5116 4.50102 14.9107C3.21126 15.5749 1.62585 15.0779 0.890246 13.8221C0.149728 12.5582 0.489109 10.9115 1.704 10.1055C2.44615 9.61179 3.23859 9.1934 4.02665 8.73047Z" fill="#055FE0"/>
<path id="Vector_4" d="M4.28735 15.7524C5.10274 15.2966 5.89081 14.8557 6.69691 14.4043C6.74281 14.5747 6.78435 14.7446 6.83408 14.9123C7.14832 15.9712 7.66969 16.9141 8.39545 17.7443C8.78457 18.1902 8.86928 18.6999 8.60859 19.2315C8.35446 19.7511 7.90906 20.0018 7.33413 19.999C7.02372 19.9974 6.74555 19.8825 6.51711 19.6708C5.36124 18.5987 4.61908 17.2874 4.28899 15.7409C4.28681 15.7288 4.29227 15.715 4.28735 15.7524Z" fill="#055FE0"/>
<path id="Vector_5" d="M19.3043 3.49844C19.2715 3.54022 19.2207 3.65568 19.1332 3.70791C18.2949 4.20548 17.4516 4.6948 16.6067 5.18027C16.4226 5.28638 16.2389 5.2303 16.1482 5.06426C16.0624 4.90757 16.1121 4.73383 16.2919 4.62827C17.127 4.13895 17.9632 3.65128 18.8026 3.16966C19.0507 3.02781 19.3048 3.16581 19.3043 3.49844Z" fill="#055FE0"/>
<path id="Vector_6" d="M18.7173 7.24317C19.1797 7.24317 19.642 7.24372 20.1043 7.24317C20.3497 7.24262 20.4847 7.34048 20.4989 7.53126C20.5142 7.73524 20.3902 7.86554 20.1382 7.87818C19.1868 7.92547 18.2353 7.96725 17.2838 8.00684C17.0663 8.01618 16.928 7.89468 16.9198 7.7061C16.9111 7.50762 17.0428 7.37842 17.2707 7.36797C17.7533 7.34598 18.2358 7.32619 18.7184 7.30584C18.7179 7.28495 18.7173 7.26406 18.7173 7.24317Z" fill="#055FE0"/>
<path id="Vector_7" d="M14.4491 3.20539C14.3349 3.11632 14.2081 3.06739 14.1824 2.98602C14.148 2.87771 14.154 2.72156 14.2098 2.6259C14.4617 2.19541 14.7372 1.77921 15.0044 1.35806C15.246 0.977054 15.4864 0.596044 15.7302 0.216134C15.869 6.33376e-05 16.0367 -0.0554663 16.2056 0.0528439C16.3729 0.160055 16.3974 0.343137 16.263 0.555909C15.7597 1.35312 15.2569 2.15087 14.7448 2.94258C14.6803 3.0421 14.5639 3.10587 14.4491 3.20539Z" fill="#055FE0"/>
</g>
</g>
<defs>
<clipPath id="clip0_126_872">
<rect width="20" height="20" fill="white" transform="translate(0.5)"/>
</clipPath>
</defs>
</svg>
