<svg width="26" height="20" viewBox="0 0 26 20" fill="none" xmlns="http://www.w3.org/2000/svg">
<g id="Group">
<path id="Vector" d="M12.4886 0.0843143C12.3593 0.129287 9.72847 1.63022 6.64228 3.42347C2.58919 5.77887 1.00393 6.72328 0.936477 6.83571C0.773454 7.0943 0.807183 7.38661 1.01518 7.60585C1.18382 7.78012 11.2575 13.677 12.2075 14.1549C12.6966 14.4078 13.3318 14.4584 13.8209 14.2898C14.2538 14.1436 25.1032 7.84195 25.3337 7.60585C25.463 7.46531 25.5136 7.36413 25.5136 7.22359C25.5136 6.97062 25.418 6.76263 25.2494 6.65582C24.6479 6.26232 14.0514 0.151772 13.849 0.0843143C13.5286 -0.0281153 12.8034 -0.0281153 12.4886 0.0843143Z" fill="#055FE0"/>
<path id="Vector_2" d="M24.5467 9.67451L23.7709 10.1298V13.0755V16.0212L23.6079 16.1617C23.5123 16.2404 23.3718 16.4428 23.2875 16.6114C23.1582 16.8812 23.1413 16.9656 23.1638 17.3085C23.2706 18.7869 25.1707 19.1692 25.8677 17.8481C26.0589 17.4827 26.042 16.9206 25.8228 16.5271C25.7328 16.3641 25.5979 16.1898 25.5304 16.1448L25.4011 16.0605V12.637C25.4011 10.7538 25.3843 9.21355 25.3618 9.21917C25.3337 9.21917 24.9683 9.42717 24.5467 9.67451Z" fill="#055FE0"/>
<path id="Vector_3" d="M4.894 13.4072L4.91086 15.3691L5.09075 15.7345C5.19194 15.9369 5.37744 16.2067 5.51236 16.336C5.74284 16.5552 9.77906 18.9388 10.7853 19.4447C11.6229 19.8663 12.4999 20.0462 13.478 19.99C14.2256 19.9506 14.8328 19.7932 15.4792 19.4784C16.4349 19.0175 20.5835 16.5834 20.8365 16.336C20.9714 16.2067 21.1569 15.9369 21.2581 15.7345L21.438 15.3691L21.4549 13.4128L21.4717 11.4566L21.3424 11.5353C20.8534 11.8501 14.9058 15.2792 14.6304 15.4085C13.7591 15.8188 12.6404 15.8301 11.7803 15.4366C11.5386 15.3241 5.41679 11.7939 5.00643 11.5296L4.87713 11.4453L4.894 13.4072Z" fill="#055FE0"/>
</g>
</svg>
